<?xml version="1.0" encoding="utf-8"?>
<?xml-stylesheet type="text/xsl" href="rss1.xsl"?>
<rss version="2.0" xmlns:atom="http://www.w3.org/2005/Atom" xmlns:content="http://purl.org/rss/1.0/modules/content/" xmlns:dc="http://purl.org/dc/elements/1.1/" xmlns:media="http://search.yahoo.com/mrss/">
<channel>
 <title>Getty</title>
 <link>http://www.gettyimg.com/</link>
 <atom:link href="http://www.gettyimg.com/" rel="self" type="application/rss+xml" />

 
                <item>
                <title><![CDATA[【Apple Music】WEB-RiP - Astrid S - The First One (1080p)]]></title>
                <link><![CDATA[https://sharemania.us/threads/astrid-s-the-first-one-1080p.239882/]]></link>
                <description><![CDATA[<article>
<blockquote class="messageText SelectQuoteContainer ugc baseHtml">
<img src="https://i.postimg.cc/Dysg2RFx/Astrid-S-The-First-One-mp4.jpg" class="bbCodeImage LbImage" alt="[​IMG]" data-url="https://i.postimg.cc/Dysg2RFx/Astrid-S-The-First-One-mp4.jpg" style=""><br>
<br>
<div class="bbCodeBlock bbCodeCode">
<div class="type">Code:</div>
<pre>General
Complete name                  : G:\Новая папка\Astrid S - The First One.mp4
Format                         : MPEG-4
Format profile                 : Base Media
Codec ID                       : isom (isom/iso2/avc1/mp41)
File size                      : 216 MiB
Duration                       : 3 min 9 s
Overall bit rate               : 9 579 kb/s
Frame rate                     : 25.000 FPS
Movie name                     : The First One
Performer                      : Astrid S
Genre                          : Pop
ContentType                    : Music Video
Recorded date                  : 2019-06-05 07:00:00 UTC
Writing application            : Lavf56.30.100
Copyright                      : ℗ 2019 Universal Music A/S

Video
ID                             : 1
Format                         : AVC
Format/Info                    : Advanced Video Codec
Format profile                 : High@L4.1
Format settings                : CABAC / 4 Ref Frames
Format settings, CABAC         : Yes
Format settings, Reference fra : 4 frames
Format settings, Slice count   : 8 slices per frame
Codec ID                       : avc1
Codec ID/Info                  : Advanced Video Coding
Duration                       : 3 min 9 s
Bit rate                       : 9 320 kb/s
Width                          : 1 912 pixels
Height                         : 1 072 pixels
Display aspect ratio           : 16:9
Frame rate mode                : Constant
Frame rate                     : 25.000 FPS
Color space                    : YUV
Chroma subsampling             : 4:2:0
Bit depth                      : 8 bits
Scan type                      : Progressive
Bits/(Pixel*Frame)             : 0.182
Stream size                    : 210 MiB (97%)
Language                       : English
Color range                    : Limited
Color primaries                : BT.709
Transfer characteristics       : BT.709
Matrix coefficients            : BT.709
Codec configuration box        : avcC

Audio
ID                             : 2
Format                         : AAC LC
Format/Info                    : Advanced Audio Codec Low Complexity
Codec ID                       : mp4a-40-2
Duration                       : 3 min 9 s
Duration_LastFrame             : -17 ms
Bit rate mode                  : Constant
Bit rate                       : 256 kb/s
Channel(s)                     : 2 channels
Channel layout                 : L R
Sampling rate                  : 48.0 kHz
Frame rate                     : 46.875 FPS (1024 SPF)
Compression mode               : Lossy
Stream size                    : 5.77 MiB (3%)
Default                        : Yes
Alternate group                : 1

</pre>
</div>
<div class="bbCodeBlock bbCodeVfcHH HiddenContent">
<div class="attribution type">Hidden Content:</div>
<blockquote>You must either reply or click 'Like' to see the hidden information contained here.</blockquote>
</div>
<div class="messageTextEndMarker">&nbsp;</div>
</blockquote>
</article>]]></description>
                <author><![CDATA[vitalya3]]></author>
                </item>

                
                <item>
                <title><![CDATA[【Actresses】Louisa Krause, Anna Friel, Shauna MacDonald - The Girlfriend Experience S02 E03(2017)1080p]]></title>
                <link><![CDATA[https://sharemania.us/threads/louisa-krause-anna-friel-shauna-macdonald-the-girlfriend-experience-s02-e03-2017-1080p.239880/]]></link>
                <description><![CDATA[<article>
<blockquote class="messageText SelectQuoteContainer ugc baseHtml">
Louisa Krause, Anna Friel, Shauna MacDonald - The Girlfriend Experience S02 E03(2017)1080p<br>
<br>
<a href="https://imgbox.com/UHc0EYWU" target="_blank" class="externalLink" rel="nofollow"><img src="https://thumbs2.imgbox.com/8e/9d/UHc0EYWU_t.jpg" class="bbCodeImage LbImage" alt="[​IMG]" data-url="https://thumbs2.imgbox.com/8e/9d/UHc0EYWU_t.jpg"></a> <a href="https://imgbox.com/GcQzO17i" target="_blank" class="externalLink" rel="nofollow"><img src="https://thumbs2.imgbox.com/38/d7/GcQzO17i_t.jpg" class="bbCodeImage LbImage" alt="[​IMG]" data-url="https://thumbs2.imgbox.com/38/d7/GcQzO17i_t.jpg"></a> <a href="https://imgbox.com/Gsiv7SOo" target="_blank" class="externalLink" rel="nofollow"><img src="https://thumbs2.imgbox.com/b0/23/Gsiv7SOo_t.jpg" class="bbCodeImage LbImage" alt="[​IMG]" data-url="https://thumbs2.imgbox.com/b0/23/Gsiv7SOo_t.jpg"></a> <a href="https://imgbox.com/HSMbhyDJ" target="_blank" class="externalLink" rel="nofollow"><img src="https://thumbs2.imgbox.com/6a/f8/HSMbhyDJ_t.jpg" class="bbCodeImage LbImage" alt="[​IMG]" data-url="https://thumbs2.imgbox.com/6a/f8/HSMbhyDJ_t.jpg"></a> <a href="https://imgbox.com/akBMMo7v" target="_blank" class="externalLink" rel="nofollow"><img src="https://thumbs2.imgbox.com/67/0f/akBMMo7v_t.jpg" class="bbCodeImage LbImage" alt="[​IMG]" data-url="https://thumbs2.imgbox.com/67/0f/akBMMo7v_t.jpg"></a> <a href="https://imgbox.com/CmSGbQ09" target="_blank" class="externalLink" rel="nofollow"><img src="https://thumbs2.imgbox.com/95/38/CmSGbQ09_t.jpg" class="bbCodeImage LbImage" alt="[​IMG]" data-url="https://thumbs2.imgbox.com/95/38/CmSGbQ09_t.jpg"></a><br>
Duration: 0:08:00 Resolution: 1920x1080 Format: mp4 Size: 290.18 MB<br>
<a href="https://filejoker.net/8hupzxf1mkwx" target="_blank" class="externalLink" rel="nofollow">https://filejoker.net/8hupzxf1mkwx</a>
<div class="messageTextEndMarker">&nbsp;</div>
</blockquote>
</article>]]></description>
                <author><![CDATA[piqeros]]></author>
                </item>

                
                <item>
                <title><![CDATA[【Apple Music】WEB-RiP - Hailee Steinfeld - Rock Bottom (feat. DNCE) (1080p)]]></title>
                <link><![CDATA[https://sharemania.us/threads/hailee-steinfeld-rock-bottom-feat-dnce-1080p.239881/]]></link>
                <description><![CDATA[<article>
<blockquote class="messageText SelectQuoteContainer ugc baseHtml">
<img src="https://i.postimg.cc/KzX7SzTJ/Hailee-Steinfeld-Rock-Bottom-feat-DNCE-mp4.jpg" class="bbCodeImage LbImage" alt="[​IMG]" data-url="https://i.postimg.cc/KzX7SzTJ/Hailee-Steinfeld-Rock-Bottom-feat-DNCE-mp4.jpg" style=""><br>
<br>
<div class="bbCodeBlock bbCodeCode">
<div class="type">Code:</div>
<pre>General
Complete name                  : G:\Новая папка\Hailee Steinfeld - Rock Bottom (feat. DNCE).mp4
Format                         : MPEG-4
Format profile                 : Base Media
Codec ID                       : isom (isom/iso2/avc1/mp41)
File size                      : 267 MiB
Duration                       : 3 min 38 s
Overall bit rate               : 10.2 Mb/s
Frame rate                     : 23.976 FPS
Movie name                     : Rock Bottom (feat. DNCE)
Performer                      : Hailee Steinfeld
Genre                          : Pop
ContentType                    : Music Video
Recorded date                  : 2016-03-25 07:00:00 UTC
Writing application            : Lavf56.30.100
Copyright                      : ℗ 2016 Republic Records, a division of UMG Recordings, Inc.

Video
ID                             : 1
Format                         : AVC
Format/Info                    : Advanced Video Codec
Format profile                 : High@L4
Format settings                : CABAC / 4 Ref Frames
Format settings, CABAC         : Yes
Format settings, Reference fra : 4 frames
Format settings, Slice count   : 8 slices per frame
Codec ID                       : avc1
Codec ID/Info                  : Advanced Video Coding
Duration                       : 3 min 38 s
Bit rate                       : 9 965 kb/s
Width                          : 1 912 pixels
Height                         : 1 072 pixels
Display aspect ratio           : 16:9
Frame rate mode                : Variable
Frame rate                     : 23.976 FPS
Minimum frame rate             : 23.976 FPS
Maximum frame rate             : 24.194 FPS
Color space                    : YUV
Chroma subsampling             : 4:2:0
Bit depth                      : 8 bits
Scan type                      : Progressive
Bits/(Pixel*Frame)             : 0.203
Stream size                    : 260 MiB (98%)
Color range                    : Limited
Color primaries                : BT.709
Transfer characteristics       : BT.709
Matrix coefficients            : BT.709
Codec configuration box        : avcC

Audio
ID                             : 2
Format                         : AAC LC
Format/Info                    : Advanced Audio Codec Low Complexity
Codec ID                       : mp4a-40-2
Duration                       : 3 min 38 s
Bit rate mode                  : Constant
Bit rate                       : 249 kb/s
Channel(s)                     : 2 channels
Channel layout                 : L R
Sampling rate                  : 48.0 kHz
Frame rate                     : 46.875 FPS (1024 SPF)
Compression mode               : Lossy
Stream size                    : 6.50 MiB (2%)
Default                        : Yes
Alternate group                : 1

</pre>
</div>
<div class="bbCodeBlock bbCodeVfcHH HiddenContent">
<div class="attribution type">Hidden Content:</div>
<blockquote>You must either reply or click 'Like' to see the hidden information contained here.</blockquote>
</div>
<div class="messageTextEndMarker">&nbsp;</div>
</blockquote>
</article>]]></description>
                <author><![CDATA[vitalya3]]></author>
                </item>

                </channel></rss>